<?xml version="1.0" encoding="utf-8" standalone="yes"?>
<!DOCTYPE svg PUBLIC "-//W3C//DTD SVG 1.1//EN" "http://www.w3.org/Graphics/SVG/1.1/DTD/svg11.dtd">
<svg width="541" height="451" viewBox="0 0 541 451" style="fill:none;stroke:none;fill-rule:evenodd;clip-rule:evenodd;stroke-linecap:round;stroke-linejoin:round;stroke-miterlimit:1.5;" version="1.1" xmlns="http://www.w3.org/2000/svg" xmlns:xlink="http://www.w3.org/1999/xlink"><style id="fontImports">@import url("https://fonts.googleapis.com/css2?family=Roboto:wght@400;700&amp;display=swap");</style><g id="blend" style="mix-blend-mode:multiply"><g id="g-root-ro_1q87nc615435zc-fill" data-item-order="-23400" data-item-id="ro_1q87nc615435zc" data-item-class="Shape Stroke Fill" data-item-index="none" data-renderer-id="0" transform="translate(182, 84)"><g id="ro_1q87nc615435zc-fill" stroke="none" fill="#f0f0f0"><g><path d="M 34 10L 142 10C 142 10 166 10 166 34L 166 136C 166 136 166 160 142 160L 34 160C 34 160 10 160 10 136L 10 34C 10 34 10 10 34 10"></path></g></g></g><g id="g-root-ro_zqaorq1545xq9-fill" data-item-order="-7128" data-item-id="ro_zqaorq1545xq9" data-item-class="Shape Stroke Fill" data-item-index="none" data-renderer-id="0" transform="translate(386, 3)"><g id="ro_zqaorq1545xq9-fill" stroke="none" fill="#ffe7e6"><g><path d="M 22 10L 130 10C 130 10 142 10 142 22L 142 52C 142 52 142 64 130 64L 22 64C 22 64 10 64 10 52L 10 22C 10 22 10 10 22 10"></path></g></g></g><g id="g-root-ro_9097fq153w3kc-fill" data-item-order="-5832" data-item-id="ro_9097fq153w3kc" data-item-class="Shape Stroke Fill" data-item-index="none" data-renderer-id="0" transform="translate(206, 339)"><g id="ro_9097fq153w3kc-fill" stroke="none" fill="#e9fbf3"><g><path d="M 22 10L 106 10C 106 10 118 10 118 22L 118 52C 118 52 118 64 106 64L 22 64C 22 64 10 64 10 52L 10 22C 10 22 10 10 22 10"></path></g></g></g><g id="g-root-ro_1lymz8m153w4r3-fill" data-item-order="-5832" data-item-id="ro_1lymz8m153w4r3" data-item-class="Shape Stroke Fill" data-item-index="none" data-renderer-id="0" transform="translate(386, 189)"><g id="ro_1lymz8m153w4r3-fill" stroke="none" fill="#e6efff"><g><path d="M 22 10L 106 10C 106 10 118 10 118 22L 118 52C 118 52 118 64 106 64L 22 64C 22 64 10 64 10 52L 10 22C 10 22 10 10 22 10"></path></g></g></g><g id="g-root-ro_mgpoti153tc76-fill" data-item-order="-5832" data-item-id="ro_mgpoti153tc76" data-item-class="Shape Stroke Fill" data-item-index="none" data-renderer-id="0" transform="translate(26, 189)"><g id="ro_mgpoti153tc76-fill" stroke="none" fill="#fef2e6"><g><path d="M 22 10L 106 10C 106 10 118 10 118 22L 118 52C 118 52 118 64 106 64L 22 64C 22 64 10 64 10 52L 10 22C 10 22 10 10 22 10"></path></g></g></g><g id="g-root-ro_18itequ153qiv9-fill" data-item-order="-5832" data-item-id="ro_18itequ153qiv9" data-item-class="Shape Stroke Fill" data-item-index="none" data-renderer-id="0" transform="translate(26, 3)"><g id="ro_18itequ153qiv9-fill" stroke="none" fill="#f7e6fe"><g><path d="M 22 10L 106 10C 106 10 118 10 118 22L 118 52C 118 52 118 64 106 64L 22 64C 22 64 10 64 10 52L 10 22C 10 22 10 10 22 10"></path></g></g></g><g id="g-root-tx__1hgy86e1545yiv-fill" data-item-order="0" data-item-id="tx__1hgy86e1545yiv" data-item-class="Label Stroke" data-item-index="none" data-renderer-id="0" transform="translate(434, 18)"><g id="tx__1hgy86e1545yiv-fill" stroke="none" fill="#e15e5a"><g><text style="font: 20px Roboto, sans-serif; white-space: pre;"><tspan x="16" y="33.75" dominant-baseline="ideographic">属性值</tspan></text></g></g></g><g id="g-root-tx__8d4va1545yj1-fill" data-item-order="0" data-item-id="tx__8d4va1545yj1" data-item-class="Label Stroke" data-item-index="none" data-renderer-id="0" transform="translate(38, 69)"><g id="tx__8d4va1545yj1-fill" stroke="none" fill="#484848"><g><text style="font: 20px Roboto, sans-serif; white-space: pre;"><tspan x="14" y="33.75" dominant-baseline="ideographic">集合</tspan></text></g></g></g><g id="g-root-cu_24h5y153ups2-fill" data-item-order="0" data-item-id="cu_24h5y153ups2" data-item-class="Curve Stroke ColorFillGray ColorStrokeGray" data-item-index="none" data-renderer-id="0" transform="translate(92, 57)"></g><g id="g-root-cu_1q7liw6153uqdp-fill" data-item-order="0" data-item-id="cu_1q7liw6153uqdp" data-item-class="Curve Stroke ColorFillGray ColorStrokeGray" data-item-index="none" data-renderer-id="0" transform="translate(92, 57)"></g><g id="g-root-cu_1cwrhly153uosv-fill" data-item-order="0" data-item-id="cu_1cwrhly153uosv" data-item-class="Curve Stroke ColorFillGray ColorStrokeGray" data-item-index="none" data-renderer-id="0" transform="translate(92, 57)"></g><g id="g-root-cu_qqag2u153uosm-fill" data-item-order="0" data-item-id="cu_qqag2u153uosm" data-item-class="Curve Stroke ColorFillGray ColorStrokeGray" data-item-index="none" data-renderer-id="0" transform="translate(410, 57)"></g><g id="g-root-cu_detxpi153uqdl-fill" data-item-order="0" data-item-id="cu_detxpi153uqdl" data-item-class="Curve Stroke ColorFillGray ColorStrokeGray" data-item-index="none" data-renderer-id="0" transform="translate(410, 57)"></g><g id="g-root-cu_3zwfa153uosr-fill" data-item-order="0" data-item-id="cu_3zwfa153uosr" data-item-class="Curve Stroke ColorFillGray ColorStrokeGray" data-item-index="none" data-renderer-id="0" transform="translate(410, 57)"></g><g id="g-root-tx__1d305ba1545ybm-fill" data-item-order="0" data-item-id="tx__1d305ba1545ybm" data-item-class="Label Stroke" data-item-index="none" data-renderer-id="0" transform="translate(434, 69)"><g id="tx__1d305ba1545ybm-fill" stroke="none" fill="#484848"><g><text style="font: 20px Roboto, sans-serif; white-space: pre;"><tspan x="16" y="33.75" dominant-baseline="ideographic">具体值</tspan></text></g></g></g><g id="g-root-tx__9405461545xqc-fill" data-item-order="0" data-item-id="tx__9405461545xqc" data-item-class="Label Stroke" data-item-index="none" data-renderer-id="0" transform="translate(254, 405)"><g id="tx__9405461545xqc-fill" stroke="none" fill="#484848"><g><text style="font: 20px Roboto, sans-serif; white-space: pre;"><tspan x="12" y="33.75" dominant-baseline="ideographic">连接实体</tspan></text></g></g></g><g id="g-root-tx__1utnopy1545z46-fill" data-item-order="0" data-item-id="tx__1utnopy1545z46" data-item-class="Label Stroke" data-item-index="none" data-renderer-id="0" transform="translate(38, 105)"><g id="tx__1utnopy1545z46-fill" stroke="none" fill="#484848"><g><text style="font: 20px Roboto, sans-serif; white-space: pre;"><tspan x="14" y="33.75" dominant-baseline="ideographic">类别</tspan></text></g></g></g><g id="g-root-colu_1uo15gm1543573-fill" data-item-order="0" data-item-id="colu_1uo15gm1543573" data-item-class="Icon Stroke" data-item-index="none" data-renderer-id="0" transform="translate(236, 108)"></g><g id="g-root-tx__147d52e1545z4b-fill" data-item-order="0" data-item-id="tx__147d52e1545z4b" data-item-class="Label Stroke" data-item-index="none" data-renderer-id="0" transform="translate(434, 105)"><g id="tx__147d52e1545z4b-fill" stroke="none" fill="#484848"><g><text style="font: 20px Roboto, sans-serif; white-space: pre;"><tspan x="16" y="33.75" dominant-baseline="ideographic">如国籍</tspan></text></g></g></g><g id="g-root-tx__1ly0oh21545zwv-fill" data-item-order="0" data-item-id="tx__1ly0oh21545zwv" data-item-class="Label Stroke" data-item-index="none" data-renderer-id="0" transform="translate(2, 141)"><g id="tx__1ly0oh21545zwv-fill" stroke="none" fill="#484848"><g><text style="font: 20px Roboto, sans-serif; white-space: pre;"><tspan x="12" y="33.75" dominant-baseline="ideographic">对象类型</tspan></text></g></g></g><g id="g-root-tx__zrjmxy1545zwk-fill" data-item-order="0" data-item-id="tx__zrjmxy1545zwk" data-item-class="Label Stroke" data-item-index="none" data-renderer-id="0" transform="translate(434, 141)"><g id="tx__zrjmxy1545zwk-fill" stroke="none" fill="#484848"><g><text style="font: 20px Roboto, sans-serif; white-space: pre;"><tspan x="16" y="33.75" dominant-baseline="ideographic">如生日</tspan></text></g></g></g><g id="g-root-tx__8xr4rq15436z2-fill" data-item-order="0" data-item-id="tx__8xr4rq15436z2" data-item-class="Label Stroke" data-item-index="none" data-renderer-id="0" transform="translate(218, 162)"><g id="tx__8xr4rq15436z2-fill" stroke="none" fill="#484848"><g><text style="font: 20px Roboto, sans-serif; white-space: pre;"><tspan x="22" y="33.75" dominant-baseline="ideographic">三元组</tspan><tspan x="12" y="57.75" dominant-baseline="ideographic">基本形式</tspan></text></g></g></g><g id="g-root-cu_1q5q3mu153urcx-fill" data-item-order="0" data-item-id="cu_1q5q3mu153urcx" data-item-class="Curve Stroke ColorFillGray ColorStrokeGray" data-item-index="none" data-renderer-id="0" transform="translate(134, 30)"></g><g id="g-root-cu_1hapkh2153uozw-fill" data-item-order="0" data-item-id="cu_1hapkh2153uozw" data-item-class="Curve Stroke ColorFillGray ColorStrokeGray" data-item-index="none" data-renderer-id="0" transform="translate(134, 184)"></g><g id="g-root-cu_8vw25i153up6r-fill" data-item-order="0" data-item-id="cu_8vw25i153up6r" data-item-class="Curve Stroke ColorFillGray ColorStrokeGray" data-item-index="none" data-renderer-id="0" transform="translate(338, 184)"></g><g id="g-root-sear_zs676u153tam9-fill" data-item-order="0" data-item-id="sear_zs676u153tam9" data-item-class="Icon Stroke" data-item-index="none" data-renderer-id="0" transform="translate(92, 201)"></g><g id="g-root-tag_145hpt2154603s-fill" data-item-order="0" data-item-id="tag_145hpt2154603s" data-item-class="Icon Stroke" data-item-index="none" data-renderer-id="0" transform="translate(398, 15)"></g><g id="g-root-tx__147d886153tczs-fill" data-item-order="0" data-item-id="tx__147d886153tczs" data-item-class="Label Stroke" data-item-index="none" data-renderer-id="0" transform="translate(38, 204)"><g id="tx__147d886153tczs-fill" stroke="none" fill="#dd8433"><g><text style="font: 20px Roboto, sans-serif; white-space: pre;"><tspan x="14" y="33.75" dominant-baseline="ideographic">属性</tspan></text></g></g></g><g id="g-root-grap_8zfmu153w3da-fill" data-item-order="0" data-item-id="grap_8zfmu153w3da" data-item-class="Icon Stroke" data-item-index="none" data-renderer-id="0" transform="translate(398, 201)"></g><g id="g-root-tx__93zysm153w5qd-fill" data-item-order="0" data-item-id="tx__93zysm153w5qd" data-item-class="Label Stroke" data-item-index="none" data-renderer-id="0" transform="translate(434, 204)"><g id="tx__93zysm153w5qd-fill" stroke="none" fill="#4682e3"><g><text style="font: 20px Roboto, sans-serif; white-space: pre;"><tspan x="14" y="33.75" dominant-baseline="ideographic">实体</tspan></text></g></g></g><g id="g-root-cu_18gxzhi153upl5-fill" data-item-order="0" data-item-id="cu_18gxzhi153upl5" data-item-class="Curve Stroke ColorFillGray ColorStrokeGray" data-item-index="none" data-renderer-id="0" transform="translate(92, 243)"></g><g id="g-root-cu_v5hh46153ur64-fill" data-item-order="0" data-item-id="cu_v5hh46153ur64" data-item-class="Curve Stroke ColorFillGray ColorStrokeGray" data-item-index="none" data-renderer-id="0" transform="translate(92, 243)"></g><g id="g-root-cu_1uljlra153uqkm-fill" data-item-order="0" data-item-id="cu_1uljlra153uqkm" data-item-class="Curve Stroke ColorFillGray ColorStrokeGray" data-item-index="none" data-renderer-id="0" transform="translate(260, 234)"></g><g id="g-root-tx__1hitnfq1545xjc-fill" data-item-order="0" data-item-id="tx__1hitnfq1545xjc" data-item-class="Label Stroke" data-item-index="none" data-renderer-id="0" transform="translate(38, 255)"><g id="tx__1hitnfq1545xjc-fill" stroke="none" fill="#484848"><g><text style="font: 20px Roboto, sans-serif; white-space: pre;"><tspan x="14" y="33.75" dominant-baseline="ideographic">特征</tspan></text></g></g></g><g id="g-root-cu_zjfjza153urd6-fill" data-item-order="0" data-item-id="cu_zjfjza153urd6" data-item-class="Curve Stroke ColorFillGray ColorStrokeGray" data-item-index="none" data-renderer-id="0" transform="translate(410, 243)"></g><g id="g-root-cu_m8lip2153upsd-fill" data-item-order="0" data-item-id="cu_m8lip2153upsd" data-item-class="Curve Stroke ColorFillGray ColorStrokeGray" data-item-index="none" data-renderer-id="0" transform="translate(410, 243)"></g><g id="g-root-tx__meu6ee1545zb6-fill" data-item-order="0" data-item-id="tx__meu6ee1545zb6" data-item-class="Label Stroke" data-item-index="none" data-renderer-id="0" transform="translate(434, 255)"><g id="tx__meu6ee1545zb6-fill" stroke="none" fill="#484848"><g><text style="font: 20px Roboto, sans-serif; white-space: pre;"><tspan x="12" y="33.75" dominant-baseline="ideographic">基本元素</tspan></text></g></g></g><g id="g-root-tx__1d305ba1545ybl-fill" data-item-order="0" data-item-id="tx__1d305ba1545ybl" data-item-class="Label Stroke" data-item-index="none" data-renderer-id="0" transform="translate(38, 291)"><g id="tx__1d305ba1545ybl-fill" stroke="none" fill="#484848"><g><text style="font: 20px Roboto, sans-serif; white-space: pre;"><tspan x="14" y="33.75" dominant-baseline="ideographic">特性</tspan></text></g></g></g><g id="g-root-tx__dj765i154603v-fill" data-item-order="0" data-item-id="tx__dj765i154603v" data-item-class="Label Stroke" data-item-index="none" data-renderer-id="0" transform="translate(434, 291)"><g id="tx__dj765i154603v-fill" stroke="none" fill="#484848"><g><text style="font: 20px Roboto, sans-serif; white-space: pre;"><tspan x="12" y="33.75" dominant-baseline="ideographic">不同关系</tspan></text></g></g></g><g id="g-root-view_1cymwva153qi30-fill" data-item-order="0" data-item-id="view_1cymwva153qi30" data-item-class="Icon Stroke" data-item-index="none" data-renderer-id="0" transform="translate(92, 15)"></g><g id="g-root-1_hv9qli153w5xf-fill" data-item-order="0" data-item-id="1_hv9qli153w5xf" data-item-class="Icon Stroke" data-item-index="none" data-renderer-id="0" transform="translate(218, 351)"></g><g id="g-root-tx__v6q8yu153w4ci-fill" data-item-order="0" data-item-id="tx__v6q8yu153w4ci" data-item-class="Label Stroke" data-item-index="none" data-renderer-id="0" transform="translate(254, 354)"><g id="tx__v6q8yu153w4ci-fill" stroke="none" fill="#3bc482"><g><text style="font: 20px Roboto, sans-serif; white-space: pre;"><tspan x="14" y="33.75" dominant-baseline="ideographic">关系</tspan></text></g></g></g><g id="g-root-cu_8x50bq153urdb-fill" data-item-order="0" data-item-id="cu_8x50bq153urdb" data-item-class="Curve Stroke ColorFillGray ColorStrokeGray" data-item-index="none" data-renderer-id="0" transform="translate(230, 393)"></g><g id="g-root-tx__1q9gy5i153qjnv-fill" data-item-order="0" data-item-id="tx__1q9gy5i153qjnv" data-item-class="Label Stroke" data-item-index="none" data-renderer-id="0" transform="translate(38, 18)"><g id="tx__1q9gy5i153qjnv-fill" stroke="none" fill="#b65edf"><g><text style="font: 20px Roboto, sans-serif; white-space: pre;"><tspan x="14" y="33.75" dominant-baseline="ideographic">概念</tspan></text></g></g></g><g id="g-root-cu_1cuw2cm153ups7-fill" data-item-order="0" data-item-id="cu_1cuw2cm153ups7" data-item-class="Curve Stroke ColorFillGray ColorStrokeGray" data-item-index="none" data-renderer-id="0" transform="translate(338, 30)"></g><g id="g-root-ro_1q87nc615435zc-stroke" data-item-order="-23400" data-item-id="ro_1q87nc615435zc" data-item-class="Shape Stroke Fill" data-item-index="none" data-renderer-id="0" transform="translate(182, 84)"><g id="ro_1q87nc615435zc-stroke" fill="none" stroke-linecap="round" stroke-linejoin="round" stroke-miterlimit="1.5" stroke="#484848" stroke-width="2"><g><path d="M 34 10L 142 10C 142 10 166 10 166 34L 166 136C 166 136 166 160 142 160L 34 160C 34 160 10 160 10 136L 10 34C 10 34 10 10 34 10"></path></g></g></g><g id="g-root-ro_zqaorq1545xq9-stroke" data-item-order="-7128" data-item-id="ro_zqaorq1545xq9" data-item-class="Shape Stroke Fill" data-item-index="none" data-renderer-id="0" transform="translate(386, 3)"><g id="ro_zqaorq1545xq9-stroke" fill="none" stroke-linecap="round" stroke-linejoin="round" stroke-miterlimit="1.5" stroke="#e15e5a" stroke-width="2"><g><path d="M 22 10L 130 10C 130 10 142 10 142 22L 142 52C 142 52 142 64 130 64L 22 64C 22 64 10 64 10 52L 10 22C 10 22 10 10 22 10"></path></g></g></g><g id="g-root-ro_9097fq153w3kc-stroke" data-item-order="-5832" data-item-id="ro_9097fq153w3kc" data-item-class="Shape Stroke Fill" data-item-index="none" data-renderer-id="0" transform="translate(206, 339)"><g id="ro_9097fq153w3kc-stroke" fill="none" stroke-linecap="round" stroke-linejoin="round" stroke-miterlimit="1.5" stroke="#3bc482" stroke-width="2"><g><path d="M 22 10L 106 10C 106 10 118 10 118 22L 118 52C 118 52 118 64 106 64L 22 64C 22 64 10 64 10 52L 10 22C 10 22 10 10 22 10"></path></g></g></g><g id="g-root-ro_1lymz8m153w4r3-stroke" data-item-order="-5832" data-item-id="ro_1lymz8m153w4r3" data-item-class="Shape Stroke Fill" data-item-index="none" data-renderer-id="0" transform="translate(386, 189)"><g id="ro_1lymz8m153w4r3-stroke" fill="none" stroke-linecap="round" stroke-linejoin="round" stroke-miterlimit="1.5" stroke="#4682e3" stroke-width="2"><g><path d="M 22 10L 106 10C 106 10 118 10 118 22L 118 52C 118 52 118 64 106 64L 22 64C 22 64 10 64 10 52L 10 22C 10 22 10 10 22 10"></path></g></g></g><g id="g-root-ro_mgpoti153tc76-stroke" data-item-order="-5832" data-item-id="ro_mgpoti153tc76" data-item-class="Shape Stroke Fill" data-item-index="none" data-renderer-id="0" transform="translate(26, 189)"><g id="ro_mgpoti153tc76-stroke" fill="none" stroke-linecap="round" stroke-linejoin="round" stroke-miterlimit="1.5" stroke="#dd8433" stroke-width="2"><g><path d="M 22 10L 106 10C 106 10 118 10 118 22L 118 52C 118 52 118 64 106 64L 22 64C 22 64 10 64 10 52L 10 22C 10 22 10 10 22 10"></path></g></g></g><g id="g-root-ro_18itequ153qiv9-stroke" data-item-order="-5832" data-item-id="ro_18itequ153qiv9" data-item-class="Shape Stroke Fill" data-item-index="none" data-renderer-id="0" transform="translate(26, 3)"><g id="ro_18itequ153qiv9-stroke" fill="none" stroke-linecap="round" stroke-linejoin="round" stroke-miterlimit="1.5" stroke="#b65edf" stroke-width="2"><g><path d="M 22 10L 106 10C 106 10 118 10 118 22L 118 52C 118 52 118 64 106 64L 22 64C 22 64 10 64 10 52L 10 22C 10 22 10 10 22 10"></path></g></g></g><g id="g-root-tx__1hgy86e1545yiv-stroke" data-item-order="0" data-item-id="tx__1hgy86e1545yiv" data-item-class="Label Stroke" data-item-index="none" data-renderer-id="0" transform="translate(434, 18)"></g><g id="g-root-tx__8d4va1545yj1-stroke" data-item-order="0" data-item-id="tx__8d4va1545yj1" data-item-class="Label Stroke" data-item-index="none" data-renderer-id="0" transform="translate(38, 69)"></g><g id="g-root-cu_24h5y153ups2-stroke" data-item-order="0" data-item-id="cu_24h5y153ups2" data-item-class="Curve Stroke ColorFillGray ColorStrokeGray" data-item-index="none" data-renderer-id="0" transform="translate(92, 57)"><g id="cu_24h5y153ups2-stroke" fill="none" stroke-linecap="round" stroke-linejoin="round" stroke-miterlimit="1.5" stroke="#bbbbbb" stroke-width="2" stroke-dasharray="5, 7"><g><path d="M 28 10L 28 22L 28 34L 19 34L 10 34"></path></g></g></g><g id="g-root-cu_1q7liw6153uqdp-stroke" data-item-order="0" data-item-id="cu_1q7liw6153uqdp" data-item-class="Curve Stroke ColorFillGray ColorStrokeGray" data-item-index="none" data-renderer-id="0" transform="translate(92, 57)"><g id="cu_1q7liw6153uqdp-stroke" fill="none" stroke-linecap="round" stroke-linejoin="round" stroke-miterlimit="1.5" stroke="#bbbbbb" stroke-width="2" stroke-dasharray="5, 7"><g><path d="M 28 10L 28 40L 28 70L 19 70L 10 70"></path></g></g></g><g id="g-root-cu_1cwrhly153uosv-stroke" data-item-order="0" data-item-id="cu_1cwrhly153uosv" data-item-class="Curve Stroke ColorFillGray ColorStrokeGray" data-item-index="none" data-renderer-id="0" transform="translate(92, 57)"><g id="cu_1cwrhly153uosv-stroke" fill="none" stroke-linecap="round" stroke-linejoin="round" stroke-miterlimit="1.5" stroke="#bbbbbb" stroke-width="2" stroke-dasharray="5, 7"><g><path d="M 28 10L 28 22L 28 94C 28 100.627 22.627 106 16 106L 15.9 106L 10 106"></path></g></g></g><g id="g-root-cu_qqag2u153uosm-stroke" data-item-order="0" data-item-id="cu_qqag2u153uosm" data-item-class="Curve Stroke ColorFillGray ColorStrokeGray" data-item-index="none" data-renderer-id="0" transform="translate(410, 57)"><g id="cu_qqag2u153uosm-stroke" fill="none" stroke-linecap="round" stroke-linejoin="round" stroke-miterlimit="1.5" stroke="#bbbbbb" stroke-width="2" stroke-dasharray="5, 7"><g><path d="M 10 10L 10 22L 10 34L 19 34L 28 34"></path></g></g></g><g id="g-root-cu_detxpi153uqdl-stroke" data-item-order="0" data-item-id="cu_detxpi153uqdl" data-item-class="Curve Stroke ColorFillGray ColorStrokeGray" data-item-index="none" data-renderer-id="0" transform="translate(410, 57)"><g id="cu_detxpi153uqdl-stroke" fill="none" stroke-linecap="round" stroke-linejoin="round" stroke-miterlimit="1.5" stroke="#bbbbbb" stroke-width="2" stroke-dasharray="5, 7"><g><path d="M 10 10L 10 40L 10 70L 19 70L 28 70"></path></g></g></g><g id="g-root-cu_3zwfa153uosr-stroke" data-item-order="0" data-item-id="cu_3zwfa153uosr" data-item-class="Curve Stroke ColorFillGray ColorStrokeGray" data-item-index="none" data-renderer-id="0" transform="translate(410, 57)"><g id="cu_3zwfa153uosr-stroke" fill="none" stroke-linecap="round" stroke-linejoin="round" stroke-miterlimit="1.5" stroke="#bbbbbb" stroke-width="2" stroke-dasharray="5, 7"><g><path d="M 10 10L 10 22L 10 94C 10 100.627 15.373 106 22 106L 22.1 106L 28 106"></path></g></g></g><g id="g-root-tx__1d305ba1545ybm-stroke" data-item-order="0" data-item-id="tx__1d305ba1545ybm" data-item-class="Label Stroke" data-item-index="none" data-renderer-id="0" transform="translate(434, 69)"></g><g id="g-root-tx__9405461545xqc-stroke" data-item-order="0" data-item-id="tx__9405461545xqc" data-item-class="Label Stroke" data-item-index="none" data-renderer-id="0" transform="translate(254, 405)"></g><g id="g-root-tx__1utnopy1545z46-stroke" data-item-order="0" data-item-id="tx__1utnopy1545z46" data-item-class="Label Stroke" data-item-index="none" data-renderer-id="0" transform="translate(38, 105)"></g><g id="g-root-colu_1uo15gm1543573-stroke" data-item-order="0" data-item-id="colu_1uo15gm1543573" data-item-class="Icon Stroke" data-item-index="none" data-renderer-id="0" transform="translate(236, 108)"><g id="colu_1uo15gm1543573-stroke" fill="none" stroke-linecap="round" stroke-linejoin="round" stroke-miterlimit="1.5" stroke="#484848" stroke-width="2"><g><path d="M 15.143 11.714L 52.857 11.714C 52.857 11.714 56.286 11.714 56.286 15.143L 56.286 52.857C 56.286 52.857 56.286 56.286 52.857 56.286L 15.143 56.286C 15.143 56.286 11.714 56.286 11.714 52.857L 11.714 15.143C 11.714 15.143 11.714 11.714 15.143 11.714M 25.429 11.714L 25.429 56.286M 42.571 11.714L 42.571 56.286"></path></g></g></g><g id="g-root-tx__147d52e1545z4b-stroke" data-item-order="0" data-item-id="tx__147d52e1545z4b" data-item-class="Label Stroke" data-item-index="none" data-renderer-id="0" transform="translate(434, 105)"></g><g id="g-root-tx__1ly0oh21545zwv-stroke" data-item-order="0" data-item-id="tx__1ly0oh21545zwv" data-item-class="Label Stroke" data-item-index="none" data-renderer-id="0" transform="translate(2, 141)"></g><g id="g-root-tx__zrjmxy1545zwk-stroke" data-item-order="0" data-item-id="tx__zrjmxy1545zwk" data-item-class="Label Stroke" data-item-index="none" data-renderer-id="0" transform="translate(434, 141)"></g><g id="g-root-tx__8xr4rq15436z2-stroke" data-item-order="0" data-item-id="tx__8xr4rq15436z2" data-item-class="Label Stroke" data-item-index="none" data-renderer-id="0" transform="translate(218, 162)"></g><g id="g-root-cu_1q5q3mu153urcx-stroke" data-item-order="0" data-item-id="cu_1q5q3mu153urcx" data-item-class="Curve Stroke ColorFillGray ColorStrokeGray" data-item-index="none" data-renderer-id="0" transform="translate(134, 30)"><g id="cu_1q5q3mu153urcx-stroke" fill="none" stroke-linecap="round" stroke-linejoin="round" stroke-miterlimit="1.5" stroke="#bbbbbb" stroke-width="2" stroke-dasharray="5, 7"><g><path d="M 58 114L 55 114L 54.9 114C 43.357 114 34 104.643 34 93.1L 34 93L 34 30.9C 34 19.357 24.643 10 13.1 10L 13 10L 10 10"></path></g></g></g><g id="g-root-cu_1hapkh2153uozw-stroke" data-item-order="0" data-item-id="cu_1hapkh2153uozw" data-item-class="Curve Stroke ColorFillGray ColorStrokeGray" data-item-index="none" data-renderer-id="0" transform="translate(134, 184)"><g id="cu_1hapkh2153uozw-stroke" fill="none" stroke-linecap="round" stroke-linejoin="round" stroke-miterlimit="1.5" stroke="#bbbbbb" stroke-width="2" stroke-dasharray="5, 7"><g><path d="M 58 10L 55 10L 54.9 10C 50.612 10.005 45.995 11.579 41.7 14.5C 39.147 16.235 36.356 20.403 34 26C 31.644 31.597 28.853 35.765 26.3 37.5C 22.005 40.421 17.388 41.995 13.1 42L 13 42L 10 42"></path></g></g></g><g id="g-root-cu_8vw25i153up6r-stroke" data-item-order="0" data-item-id="cu_8vw25i153up6r" data-item-class="Curve Stroke ColorFillGray ColorStrokeGray" data-item-index="none" data-renderer-id="0" transform="translate(338, 184)"><g id="cu_8vw25i153up6r-stroke" fill="none" stroke-linecap="round" stroke-linejoin="round" stroke-miterlimit="1.5" stroke="#bbbbbb" stroke-width="2" stroke-dasharray="5, 7"><g><path d="M 10 10L 13 10L 13.1 10C 17.388 10.005 22.005 11.579 26.3 14.5C 28.853 16.235 31.644 20.403 34 26C 36.356 31.597 39.147 35.765 41.7 37.5C 45.995 40.421 50.612 41.995 54.9 42L 55 42L 58 42"></path></g></g></g><g id="g-root-sear_zs676u153tam9-stroke" data-item-order="0" data-item-id="sear_zs676u153tam9" data-item-class="Icon Stroke" data-item-index="none" data-renderer-id="0" transform="translate(92, 201)"><g id="sear_zs676u153tam9-stroke" fill="none" stroke-linecap="round" stroke-linejoin="round" stroke-miterlimit="1.5" stroke="#dd8433" stroke-width="2"><g><path d="M 11.071 22.686C 11.07 29.101 16.27 34.302 22.686 34.302C 29.101 34.302 34.301 29.101 34.3 22.686C 34.301 16.27 29.101 11.069 22.686 11.069C 16.27 11.069 11.07 16.27 11.071 22.686M 38.929 38.929L 30.893 30.893"></path></g></g></g><g id="g-root-tag_145hpt2154603s-stroke" data-item-order="0" data-item-id="tag_145hpt2154603s" data-item-class="Icon Stroke" data-item-index="none" data-renderer-id="0" transform="translate(398, 15)"><g id="tag_145hpt2154603s-stroke" fill="none" stroke-linecap="round" stroke-linejoin="round" stroke-miterlimit="1.5" stroke="#e15e5a" stroke-width="2"><g><path d="M 38.457 30.121L 30.121 38.457C 29.494 39.084 28.477 39.084 27.85 38.457L 11.307 21.914C 11.139 21.753 11.052 21.525 11.071 21.293L 12.336 13.086C 12.357 12.681 12.681 12.357 13.086 12.336L 21.293 11.071C 21.525 11.052 21.753 11.139 21.914 11.307L 38.457 27.85C 39.084 28.477 39.084 29.494 38.457 30.121ZM 17.736 18.807C 17.736 19.399 18.215 19.879 18.807 19.879C 19.399 19.879 19.879 19.399 19.879 18.807C 19.879 18.215 19.399 17.736 18.807 17.736C 18.215 17.736 17.736 18.215 17.736 18.807"></path></g></g></g><g id="g-root-tx__147d886153tczs-stroke" data-item-order="0" data-item-id="tx__147d886153tczs" data-item-class="Label Stroke" data-item-index="none" data-renderer-id="0" transform="translate(38, 204)"></g><g id="g-root-grap_8zfmu153w3da-stroke" data-item-order="0" data-item-id="grap_8zfmu153w3da" data-item-class="Icon Stroke" data-item-index="none" data-renderer-id="0" transform="translate(398, 201)"><g id="grap_8zfmu153w3da-stroke" fill="none" stroke-linecap="round" stroke-linejoin="round" stroke-miterlimit="1.5" stroke="#4682e3" stroke-width="2"><g><path d="M 11.071 11.071L 11.071 38.929L 38.929 38.929M 17.5 23.929L 22.857 29.286L 31.429 16.429L 38.929 21.786"></path></g></g></g><g id="g-root-tx__93zysm153w5qd-stroke" data-item-order="0" data-item-id="tx__93zysm153w5qd" data-item-class="Label Stroke" data-item-index="none" data-renderer-id="0" transform="translate(434, 204)"></g><g id="g-root-cu_18gxzhi153upl5-stroke" data-item-order="0" data-item-id="cu_18gxzhi153upl5" data-item-class="Curve Stroke ColorFillGray ColorStrokeGray" data-item-index="none" data-renderer-id="0" transform="translate(92, 243)"><g id="cu_18gxzhi153upl5-stroke" fill="none" stroke-linecap="round" stroke-linejoin="round" stroke-miterlimit="1.5" stroke="#bbbbbb" stroke-width="2" stroke-dasharray="5, 7"><g><path d="M 28 10L 28 22L 28 34L 19 34L 10 34"></path></g></g></g><g id="g-root-cu_v5hh46153ur64-stroke" data-item-order="0" data-item-id="cu_v5hh46153ur64" data-item-class="Curve Stroke ColorFillGray ColorStrokeGray" data-item-index="none" data-renderer-id="0" transform="translate(92, 243)"><g id="cu_v5hh46153ur64-stroke" fill="none" stroke-linecap="round" stroke-linejoin="round" stroke-miterlimit="1.5" stroke="#bbbbbb" stroke-width="2" stroke-dasharray="5, 7"><g><path d="M 28 10L 28 17.5L 28 58C 28 64.627 22.627 70 16 70L 15.9 70L 10 70"></path></g></g></g><g id="g-root-cu_1uljlra153uqkm-stroke" data-item-order="0" data-item-id="cu_1uljlra153uqkm" data-item-class="Curve Stroke ColorFillGray ColorStrokeGray" data-item-index="none" data-renderer-id="0" transform="translate(260, 234)"><g id="cu_1uljlra153uqkm-stroke" fill="none" stroke-linecap="round" stroke-linejoin="round" stroke-miterlimit="1.5" stroke="#bbbbbb" stroke-width="2" stroke-dasharray="5, 7"><g><path d="M 10 10L 10 62.5L 10 115"></path></g></g></g><g id="g-root-tx__1hitnfq1545xjc-stroke" data-item-order="0" data-item-id="tx__1hitnfq1545xjc" data-item-class="Label Stroke" data-item-index="none" data-renderer-id="0" transform="translate(38, 255)"></g><g id="g-root-cu_zjfjza153urd6-stroke" data-item-order="0" data-item-id="cu_zjfjza153urd6" data-item-class="Curve Stroke ColorFillGray ColorStrokeGray" data-item-index="none" data-renderer-id="0" transform="translate(410, 243)"><g id="cu_zjfjza153urd6-stroke" fill="none" stroke-linecap="round" stroke-linejoin="round" stroke-miterlimit="1.5" stroke="#bbbbbb" stroke-width="2" stroke-dasharray="5, 7"><g><path d="M 10 10L 10 22L 10 34L 19 34L 28 34"></path></g></g></g><g id="g-root-cu_m8lip2153upsd-stroke" data-item-order="0" data-item-id="cu_m8lip2153upsd" data-item-class="Curve Stroke ColorFillGray ColorStrokeGray" data-item-index="none" data-renderer-id="0" transform="translate(410, 243)"><g id="cu_m8lip2153upsd-stroke" fill="none" stroke-linecap="round" stroke-linejoin="round" stroke-miterlimit="1.5" stroke="#bbbbbb" stroke-width="2" stroke-dasharray="5, 7"><g><path d="M 10 10L 10 17.5L 10 58C 10 64.627 15.373 70 22 70L 22.1 70L 28 70"></path></g></g></g><g id="g-root-tx__meu6ee1545zb6-stroke" data-item-order="0" data-item-id="tx__meu6ee1545zb6" data-item-class="Label Stroke" data-item-index="none" data-renderer-id="0" transform="translate(434, 255)"></g><g id="g-root-tx__1d305ba1545ybl-stroke" data-item-order="0" data-item-id="tx__1d305ba1545ybl" data-item-class="Label Stroke" data-item-index="none" data-renderer-id="0" transform="translate(38, 291)"></g><g id="g-root-tx__dj765i154603v-stroke" data-item-order="0" data-item-id="tx__dj765i154603v" data-item-class="Label Stroke" data-item-index="none" data-renderer-id="0" transform="translate(434, 291)"></g><g id="g-root-view_1cymwva153qi30-stroke" data-item-order="0" data-item-id="view_1cymwva153qi30" data-item-class="Icon Stroke" data-item-index="none" data-renderer-id="0" transform="translate(92, 15)"><g id="view_1cymwva153qi30-stroke" fill="none" stroke-linecap="round" stroke-linejoin="round" stroke-miterlimit="1.5" stroke="#b65edf" stroke-width="2"><g><path d="M 39.375 25C 39.375 25 32.94 33.125 25 33.125C 17.06 33.125 10.625 25 10.625 25C 10.625 25 17.06 16.875 25 16.875C 32.94 16.875 39.375 25 39.375 25ZM 20 25C 20 27.761 22.239 30 25 30C 27.761 30 30 27.761 30 25C 30 22.239 27.761 20 25 20C 22.239 20 20 22.239 20 25ZM 25 22.5C 26.381 22.5 27.5 23.619 27.5 25C 27.5 26.381 26.381 27.5 25 27.5C 23.619 27.5 22.5 26.381 22.5 25"></path></g></g></g><g id="g-root-1_hv9qli153w5xf-stroke" data-item-order="0" data-item-id="1_hv9qli153w5xf" data-item-class="Icon Stroke" data-item-index="none" data-renderer-id="0" transform="translate(218, 351)"><g id="1_hv9qli153w5xf-stroke" fill="none" stroke-linecap="round" stroke-linejoin="round" stroke-miterlimit="1.5" stroke="#3bc482" stroke-width="2"><g><path d="M 28.125 20.313L 23.667 21.778C 22.93 22.015 22.134 21.646 21.84 20.93C 21.545 20.213 21.851 19.391 22.542 19.041L 26.861 16.882C 27.606 16.513 28.469 16.465 29.25 16.75L 35.625 19.063L 35.625 27.813L 28.118 29.239M 14.375 27.813L 17.5 27.813L 21.987 32.842C 22.455 33.386 23.211 33.58 23.883 33.331C 24.555 33.081 25 32.44 25 31.724L 25 30.938L 25.224 31.028C 25.876 31.288 26.614 31.208 27.195 30.814C 27.777 30.421 28.125 29.764 28.125 29.062L 28.75 29.063C 29.46 29.063 30.109 28.661 30.427 28.026C 30.745 27.391 30.676 26.631 30.25 26.063L 26.25 20.938M 23.19 18.711L 22.733 18.336C 21.986 17.784 21.008 17.656 20.145 18L 14.375 20.313M 10.625 17.813L 13.125 17.813C 13.815 17.813 14.375 18.372 14.375 19.063L 14.375 27.813C 14.375 28.503 13.815 29.063 13.125 29.063L 10.625 29.063M 39.375 29.063L 36.875 29.063C 36.185 29.063 35.625 28.503 35.625 27.813L 35.625 19.063C 35.625 18.372 36.185 17.813 36.875 17.813L 39.375 17.813M 25 30.938L 23.75 29.688M 26.25 27.188L 28.125 29.063"></path></g></g></g><g id="g-root-tx__v6q8yu153w4ci-stroke" data-item-order="0" data-item-id="tx__v6q8yu153w4ci" data-item-class="Label Stroke" data-item-index="none" data-renderer-id="0" transform="translate(254, 354)"></g><g id="g-root-cu_8x50bq153urdb-stroke" data-item-order="0" data-item-id="cu_8x50bq153urdb" data-item-class="Curve Stroke ColorFillGray ColorStrokeGray" data-item-index="none" data-renderer-id="0" transform="translate(230, 393)"><g id="cu_8x50bq153urdb-stroke" fill="none" stroke-linecap="round" stroke-linejoin="round" stroke-miterlimit="1.5" stroke="#bbbbbb" stroke-width="2" stroke-dasharray="5, 7"><g><path d="M 10 10L 10 13L 10 22C 10 28.627 15.373 34 22 34L 22.1 34L 28 34"></path></g></g></g><g id="g-root-tx__1q9gy5i153qjnv-stroke" data-item-order="0" data-item-id="tx__1q9gy5i153qjnv" data-item-class="Label Stroke" data-item-index="none" data-renderer-id="0" transform="translate(38, 18)"></g><g id="g-root-cu_1cuw2cm153ups7-stroke" data-item-order="0" data-item-id="cu_1cuw2cm153ups7" data-item-class="Curve Stroke ColorFillGray ColorStrokeGray" data-item-index="none" data-renderer-id="0" transform="translate(338, 30)"><g id="cu_1cuw2cm153ups7-stroke" fill="none" stroke-linecap="round" stroke-linejoin="round" stroke-miterlimit="1.5" stroke="#bbbbbb" stroke-width="2" stroke-dasharray="5, 7"><g><path d="M 10 114L 13 114L 13.1 114C 24.643 114 34 104.643 34 93.1L 34 93L 34 30.9C 34 19.357 43.357 10 54.9 10L 55 10L 58 10"></path></g></g></g></g></svg>