<svg xmlns="http://www.w3.org/2000/svg" viewBox="0 0 800 600">
  <!-- Background -->
  <rect width="100%" height="100%" fill="#f0f0f0"/>
  
  <!-- Title -->
  <rect x="0" y="20" width="100%" height="60" fill="url(#titleGradient)"/>
  <text x="400" y="60" font-size="24" text-anchor="middle" fill="white">Knowledge Graph Interdisciplinary Field</text>
  
  <!-- Main circle -->
  <circle cx="400" cy="320" r="200" fill="#5f9ea0"/>
  
  <!-- Circle quadrants -->
  <line x1="400" y1="120" x2="400" y2="520" stroke="white" stroke-width="2"/>
  <line x1="200" y1="320" x2="600" y2="320" stroke="white" stroke-width="2"/>
  
  <!-- Quadrant texts -->
  <text x="300" y="240" fill="white" font-size="14" text-anchor="middle">Knowledge</text>
  <text x="300" y="260" fill="white" font-size="14" text-anchor="middle">Representation &amp;</text>
  <text x="300" y="280" fill="white" font-size="14" text-anchor="middle">Representation</text>
  <text x="300" y="300" fill="white" font-size="14" text-anchor="middle">Learning</text>
  
  <text x="500" y="240" fill="white" font-size="14" text-anchor="middle">Information</text>
  <text x="500" y="260" fill="white" font-size="14" text-anchor="middle">Extraction &amp;</text>
  <text x="500" y="280" fill="white" font-size="14" text-anchor="middle">Knowledge</text>
  <text x="500" y="300" fill="white" font-size="14" text-anchor="middle">Base Population</text>
  
  <text x="300" y="360" fill="white" font-size="14" text-anchor="middle">Graph Database</text>
  <text x="300" y="380" fill="white" font-size="14" text-anchor="middle">&amp; Data</text>
  <text x="300" y="400" fill="white" font-size="14" text-anchor="middle">Integration</text>
  
  <text x="500" y="360" fill="white" font-size="14" text-anchor="middle">Semantic</text>
  <text x="500" y="380" fill="white" font-size="14" text-anchor="middle">Search &amp;</text>
  <text x="500" y="400" fill="white" font-size="14" text-anchor="middle">Question</text>
  <text x="500" y="420" fill="white" font-size="14" text-anchor="middle">Answering</text>
  
  <!-- Surrounding boxes -->
  <rect x="70" y="170" width="120" height="60" rx="10" ry="10" fill="#8fbc8f"/>
  <text x="130" y="205" font-size="14" text-anchor="middle" fill="white">AI &amp; Machine</text>
  <text x="130" y="225" font-size="14" text-anchor="middle" fill="white">Learning</text>
  
  <rect x="610" y="170" width="120" height="60" rx="10" ry="10" fill="#d8b858"/>
  <text x="670" y="210" font-size="16" text-anchor="middle" fill="white">NLP</text>
  
  <rect x="70" y="410" width="120" height="60" rx="10" ry="10" fill="#8fbc8f"/>
  <text x="130" y="450" font-size="16" text-anchor="middle" fill="white">Database</text>
  
  <rect x="610" y="410" width="120" height="60" rx="10" ry="10" fill="#8fbc8f"/>
  <text x="670" y="445" font-size="16" text-anchor="middle" fill="white">Web &amp; IR</text>
    
  <!-- Gradient for title background -->
  <defs>
    <linearGradient id="titleGradient" x1="0%" y1="0%" x2="100%" y2="0%">
      <stop offset="0%" style="stop-color:#4a90e2;stop-opacity:1" />
      <stop offset="100%" style="stop-color:#63b3ed;stop-opacity:1" />
    </linearGradient>
  </defs>
</svg>